<svg xmlns="http://www.w3.org/2000/svg" viewBox="0 0 201.36 72.29"><defs><style>.cls-1{isolation:isolate;}.cls-2,.cls-7{opacity:0.7;}.cls-3{opacity:0.12;mix-blend-mode:multiply;}.cls-4{stroke:#000;}.cls-4,.cls-6{stroke-miterlimit:10;}.cls-5,.cls-6,.cls-7{fill:#006414;}.cls-6{stroke:#fff;}.cls-8{font-size:19px;font-family:PalatinoLinotype-BoldItalic, Palatino Linotype;font-weight:700;font-style:italic;}.cls-11,.cls-8{fill:#fff;}.cls-9{letter-spacing:-0.06em;}.cls-10{letter-spacing:0em;}.cls-11{font-size:6px;font-family:PalatinoLinotype-Roman, Palatino Linotype;}.cls-12{letter-spacing:0.02em;opacity:0.44;}</style></defs><title>logoTextil</title><g class="cls-1"><g id="Capa_1" data-name="Capa 1"><g class="cls-2"><g class="cls-3"><path d="M155.54,88.92c0-2.76-3.4-5-7.6-5s-7.59,2.24-7.59,5a3,3,0,0,0,.09.72,7.66,7.66,0,0,0-.09,1.19v42.45c0,6.81,2.4,5.88,5.88,6.24,0,0,4.75-18.45,9.31-31.34V90.83a7.66,7.66,0,0,0-.09-1.19A3.55,3.55,0,0,0,155.54,88.92Z" transform="translate(-137.51 -81.09)"/><ellipse class="cls-4" cx="10.43" cy="7.17" rx="5.62" ry="2.99"/><path d="M176.44,100.15c.79-2.64-1.84-5.76-5.86-7s-7.92,0-8.7,2.63a2.85,2.85,0,0,0-.12.71,7.87,7.87,0,0,0-.43,1.12l-12.09,40.69c-.22,7.23,9.36,8.48,12.42,7.27,0,0-2.89-7.81-.17-12.15a16.37,16.37,0,0,1,3.88-4.36c1.91-4.15,1.85-4.07,3.17-5.89.09-.14,2-1.7,2-1.86,1.64-5.53,3.74-13.91,5.36-19.37a8.84,8.84,0,0,0,.26-1.17A3.08,3.08,0,0,0,176.44,100.15Z" transform="translate(-137.51 -81.09)"/><ellipse class="cls-4" cx="169.71" cy="97.01" rx="2.99" ry="5.62" transform="translate(-109.14 150.97) rotate(-73.45)"/><path d="M169.77,127.92l-.05,0S169.77,127.92,169.77,127.92Z" transform="translate(-137.51 -81.09)"/><path d="M216.62,123.28a1.23,1.23,0,0,0-1.11-.57c-.95,0-6.35.23-8.45.16-1.23,0-2.45-.11-3.76-.23a32,32,0,0,1-7.68-1.78h0l3.75-4s6.29-6.43-.26-10.3c-5.21-3.08-7.57,0-7.57,0L169.37,127.2a.66.66,0,0,0,.35.68,10.26,10.26,0,0,1,2.69-.22,13.47,13.47,0,0,1,5.08.75,20.91,20.91,0,0,1,3.66,2.45,9,9,0,0,0,1.43,1.63,2.27,2.27,0,0,0,1.72.45l10.4-11.11a1.3,1.3,0,0,0,.9,1.21,37.54,37.54,0,0,0,7,1.62,61.76,61.76,0,0,0,9.48.24,1.24,1.24,0,0,1,1.15,1.84c-4,7.32-8.21,14.57-12.24,21.9a1.19,1.19,0,0,1-.75.6,39,39,0,0,1-24.46.76c-.15,0-4-1.74-4.16-1.82-1.18-.84-6.8-4.48-6.18-9.4a6.51,6.51,0,0,1,4.41-5.84c3.23-1,6.49-.29,7.77,2.43,1.19,2.93,1.07,6.28-1.72,7.06-3.6,1-4.27-.25-4.68-1.83-.58-2.2.48-3.62,1.13-3.78,2.49-.59,4.11,2.05,2.38,2.7-1.5.55-2.7.11-2,1.85s3.24,0,3.89-.34c1.37-.75.83-4,0-4.94s-5.22-2-6.87-.72c-1.23.95-1.67,4.06-1.11,5.15s2.3,4.63,6.16,4.17a6.56,6.56,0,0,0,6-6.58c0-3.06-1.92-7.64-7.53-7.81s-7.48,2.89-8.14,3.6-3.78,6.28-.88,10.53,5.92,5.59,9.87,7.49c4.16,2,22.24,1.71,25.1.47,2.5-1.09,2.81-.81,3.83-2.85s13.79-24.92,13.79-24.92A1.65,1.65,0,0,0,216.62,123.28Z" transform="translate(-137.51 -81.09)"/></g><path class="cls-5" d="M152.7,86.08c0-2.76-3.4-5-7.59-5s-7.6,2.23-7.6,5a3.56,3.56,0,0,0,.09.73,7.62,7.62,0,0,0-.09,1.18v42.46c0,6.81,2.4,5.88,5.88,6.23,0,0,4.76-18.45,9.31-31.34V88a9.11,9.11,0,0,0-.08-1.18A3.55,3.55,0,0,0,152.7,86.08Z" transform="translate(-137.51 -81.09)"/><ellipse class="cls-6" cx="7.6" cy="4.33" rx="5.62" ry="2.99"/><path class="cls-5" d="M173.6,97.32c.79-2.65-1.83-5.76-5.85-7s-7.92,0-8.71,2.63a3.61,3.61,0,0,0-.12.72,7.72,7.72,0,0,0-.42,1.11l-12.1,40.7c-.22,7.22,9.37,8.48,12.43,7.27,0,0-2.89-7.81-.17-12.15a16.24,16.24,0,0,1,3.87-4.36c1.91-4.15,1.86-4.08,3.17-5.9.1-.13,2-1.69,2-1.85,1.63-5.54,3.74-13.91,5.36-19.38a7.09,7.09,0,0,0,.25-1.16A3.57,3.57,0,0,0,173.6,97.32Z" transform="translate(-137.51 -81.09)"/><ellipse class="cls-6" cx="166.88" cy="94.18" rx="2.99" ry="5.62" transform="translate(-108.45 146.23) rotate(-73.45)"/><path class="cls-5" d="M166.94,125.09l-.05,0S166.94,125.09,166.94,125.09Z" transform="translate(-137.51 -81.09)"/><path class="cls-5" d="M213.79,120.45a1.24,1.24,0,0,0-1.12-.58c-.95,0-6.35.24-8.44.17-1.23,0-2.45-.12-3.76-.23a32.06,32.06,0,0,1-7.68-1.79h0l3.74-4s6.3-6.42-.25-10.3c-5.22-3.08-7.58,0-7.58,0l-22.17,20.68a.7.7,0,0,0,.36.69,10,10,0,0,1,2.68-.22,13.44,13.44,0,0,1,5.09.74,20.38,20.38,0,0,1,3.65,2.45,9.43,9.43,0,0,0,1.43,1.64,2.29,2.29,0,0,0,1.73.45L191.87,119a1.25,1.25,0,0,0,.9,1.2,37.57,37.57,0,0,0,7,1.63,60.48,60.48,0,0,0,9.48.23,1.26,1.26,0,0,1,1.15,1.85c-4.05,7.32-8.22,14.57-12.24,21.9a1.28,1.28,0,0,1-.75.6,39.13,39.13,0,0,1-24.47.76c-.14,0-4-1.75-4.15-1.83-1.18-.83-6.81-4.48-6.18-9.39a6.48,6.48,0,0,1,4.4-5.84c3.24-1.05,6.49-.29,7.78,2.42,1.19,2.94,1.06,6.28-1.73,7.07-3.59,1-4.26-.26-4.68-1.83-.57-2.21.48-3.63,1.13-3.78,2.5-.59,4.11,2,2.38,2.69-1.49.56-2.7.11-2,1.85s3.25,0,3.89-.34c1.38-.75.84-4,0-4.93s-5.22-2-6.86-.73c-1.24,1-1.68,4.06-1.11,5.15s2.3,4.63,6.16,4.17a6.54,6.54,0,0,0,6-6.57c0-3.07-1.91-7.64-7.53-7.81s-7.47,2.89-8.14,3.59-3.77,6.28-.88,10.54,5.93,5.59,9.87,7.49c4.16,2,22.25,1.71,25.11.46,2.5-1.08,2.81-.81,3.83-2.85s13.79-24.91,13.79-24.91A1.69,1.69,0,0,0,213.79,120.45Z" transform="translate(-137.51 -81.09)"/></g><rect class="cls-7" x="78.55" y="14.21" width="122.81" height="39.25" rx="4.82"/><text class="cls-8" transform="translate(89.21 38.15)">EN <tspan class="cls-9" x="31.13" y="0">T</tspan><tspan class="cls-10" x="41.53" y="0">ALLER</tspan></text><text class="cls-11" transform="translate(122.85 46.47)"><tspan class="cls-12">Estamos para ti</tspan><tspan x="42.76" y="0"> </tspan></text></g></g></svg>