<svg xmlns="http://www.w3.org/2000/svg" viewBox="0 0 79.33 72.29"><defs><style>.cls-1{isolation:isolate;}.cls-2{opacity:0.12;mix-blend-mode:multiply;}.cls-3{stroke:#000;}.cls-3,.cls-5{stroke-miterlimit:10;}.cls-4,.cls-5{fill:#3e6552;}.cls-5{stroke:#fff;}</style></defs><title>Logo</title><g class="cls-1"><g id="Capa_1" data-name="Capa 1"><g class="cls-2"><path d="M122.46,251.77c0-2.76-3.4-5-7.59-5s-7.6,2.24-7.6,5a3.55,3.55,0,0,0,.09.72,7.66,7.66,0,0,0-.09,1.19v42.45c0,6.81,2.4,5.88,5.88,6.23,0,0,4.76-18.44,9.31-31.34V253.68a9.14,9.14,0,0,0-.08-1.19A3.53,3.53,0,0,0,122.46,251.77Z" transform="translate(-104.44 -243.93)"/><ellipse class="cls-3" cx="10.43" cy="7.17" rx="5.62" ry="2.99"/><path d="M143.36,263c.79-2.64-1.83-5.76-5.85-6.95s-7.92,0-8.71,2.62a3.61,3.61,0,0,0-.12.72,7.85,7.85,0,0,0-.42,1.12l-12.1,40.69c-.22,7.23,9.37,8.48,12.43,7.27,0,0-2.89-7.81-.17-12.15a16.44,16.44,0,0,1,3.87-4.36c1.91-4.15,1.86-4.07,3.17-5.89.1-.14,1.95-1.7,2-1.86,1.63-5.53,3.74-13.91,5.36-19.38a7.09,7.09,0,0,0,.25-1.16A3.08,3.08,0,0,0,143.36,263Z" transform="translate(-104.44 -243.93)"/><ellipse class="cls-3" cx="136.64" cy="259.86" rx="2.99" ry="5.62" transform="translate(-255.82 72.87) rotate(-73.45)"/><path d="M136.7,290.77l0,0S136.7,290.77,136.7,290.77Z" transform="translate(-104.44 -243.93)"/><path d="M183.55,286.13a1.27,1.27,0,0,0-1.12-.58c-1,.05-6.35.24-8.44.17-1.23,0-2.45-.11-3.76-.23a32.23,32.23,0,0,1-7.69-1.78h0l3.75-4s6.3-6.43-.25-10.3c-5.22-3.08-7.58-.05-7.58-.05l-22.17,20.69a.68.68,0,0,0,.36.68,10,10,0,0,1,2.68-.22,13.55,13.55,0,0,1,5.09.75,20.38,20.38,0,0,1,3.65,2.45,9.45,9.45,0,0,0,1.43,1.63,2.29,2.29,0,0,0,1.73.45l10.4-11.11a1.27,1.27,0,0,0,.9,1.21,37.54,37.54,0,0,0,7,1.62,61.69,61.69,0,0,0,9.48.24,1.25,1.25,0,0,1,1.15,1.84c-4,7.32-8.22,14.57-12.24,21.9a1.21,1.21,0,0,1-.75.6,39.06,39.06,0,0,1-24.47.76c-.14,0-4-1.74-4.15-1.83-1.18-.83-6.81-4.47-6.18-9.39a6.49,6.49,0,0,1,4.4-5.84c3.24-1,6.49-.29,7.78,2.43,1.19,2.93,1.06,6.28-1.73,7.06-3.59,1-4.26-.25-4.68-1.83-.57-2.2.48-3.63,1.13-3.78,2.5-.59,4.11,2.05,2.38,2.69-1.49.56-2.7.12-2,1.86s3.25,0,3.89-.34c1.38-.75.84-4,0-4.94s-5.22-2-6.86-.72c-1.24.95-1.68,4-1.11,5.14s2.29,4.64,6.16,4.18a6.56,6.56,0,0,0,6-6.58c0-3.06-1.91-7.64-7.53-7.81s-7.47,2.89-8.14,3.6-3.77,6.27-.88,10.53,5.93,5.59,9.87,7.49c4.16,2,22.25,1.71,25.11.47,2.5-1.09,2.81-.81,3.83-2.85s13.79-24.92,13.79-24.92A1.69,1.69,0,0,0,183.55,286.13Z" transform="translate(-104.44 -243.93)"/></g><path class="cls-4" d="M119.63,248.93c0-2.76-3.4-5-7.6-5s-7.59,2.24-7.59,5a2.84,2.84,0,0,0,.09.72,7.85,7.85,0,0,0-.09,1.19V293.3c0,6.8,2.4,5.88,5.88,6.23,0,0,4.75-18.45,9.31-31.34V250.84a7.85,7.85,0,0,0-.09-1.19A3.38,3.38,0,0,0,119.63,248.93Z" transform="translate(-104.44 -243.93)"/><ellipse class="cls-5" cx="7.6" cy="4.33" rx="5.62" ry="2.99"/><path class="cls-4" d="M140.53,260.17c.79-2.65-1.84-5.76-5.86-7s-7.92,0-8.7,2.63a3,3,0,0,0-.12.72,7.74,7.74,0,0,0-.43,1.11l-12.09,40.7c-.22,7.22,9.36,8.48,12.42,7.27,0,0-2.89-7.81-.17-12.15a16.16,16.16,0,0,1,3.88-4.36c1.91-4.15,1.85-4.08,3.17-5.9.09-.13,2-1.69,2-1.85,1.64-5.54,3.74-13.92,5.36-19.38a8.19,8.19,0,0,0,.26-1.17A3.23,3.23,0,0,0,140.53,260.17Z" transform="translate(-104.44 -243.93)"/><ellipse class="cls-5" cx="133.8" cy="257.03" rx="2.99" ry="5.62" transform="translate(-255.13 68.13) rotate(-73.45)"/><path class="cls-4" d="M133.86,287.93l-.05,0S133.86,287.93,133.86,287.93Z" transform="translate(-104.44 -243.93)"/><path class="cls-4" d="M180.71,283.3a1.23,1.23,0,0,0-1.11-.58c-.95,0-6.35.24-8.45.17-1.23,0-2.45-.12-3.76-.23a32.55,32.55,0,0,1-7.68-1.79h0l3.75-4s6.29-6.43-.26-10.3c-5.21-3.08-7.57,0-7.57,0l-22.17,20.68a.68.68,0,0,0,.35.69,10.26,10.26,0,0,1,2.69-.22,13.36,13.36,0,0,1,5.08.74,20.91,20.91,0,0,1,3.66,2.45,9,9,0,0,0,1.43,1.64,2.32,2.32,0,0,0,1.72.45l10.4-11.11a1.29,1.29,0,0,0,.9,1.2,37.76,37.76,0,0,0,7,1.63,60.55,60.55,0,0,0,9.48.23,1.25,1.25,0,0,1,1.15,1.85c-4,7.32-8.21,14.57-12.24,21.9a1.26,1.26,0,0,1-.75.6,39.09,39.09,0,0,1-24.46.76c-.14,0-4-1.75-4.16-1.83-1.18-.83-6.8-4.48-6.18-9.39a6.49,6.49,0,0,1,4.41-5.84c3.23-1,6.49-.29,7.77,2.42,1.19,2.94,1.07,6.28-1.72,7.07-3.6,1-4.27-.26-4.68-1.83-.58-2.21.48-3.63,1.13-3.78,2.49-.59,4.11,2,2.38,2.69-1.5.56-2.7.11-2,1.85s3.24,0,3.89-.34c1.37-.75.83-4,0-4.94s-5.22-2-6.87-.72c-1.23,1-1.67,4.06-1.11,5.15s2.3,4.63,6.16,4.17a6.55,6.55,0,0,0,6-6.57c0-3.07-1.92-7.64-7.53-7.81s-7.48,2.88-8.14,3.59-3.78,6.28-.88,10.54,5.92,5.59,9.87,7.48c4.16,2,22.24,1.72,25.1.47,2.5-1.09,2.81-.81,3.83-2.85s13.79-24.91,13.79-24.91A1.65,1.65,0,0,0,180.71,283.3Z" transform="translate(-104.44 -243.93)"/></g></g></svg>