<svg xmlns="http://www.w3.org/2000/svg" viewBox="0 0 235.17 140.36"><defs><style>.cls-1{isolation:isolate;}.cls-2{opacity:0.12;mix-blend-mode:multiply;}.cls-3{stroke:#000;}.cls-3,.cls-5{stroke-miterlimit:10;}.cls-4{fill:#009245;}.cls-5{fill:#fff;stroke:#fff;}.cls-6{fill:#ff0;}.cls-7{fill:#d4145a;}</style></defs><title>logo2</title><g class="cls-1"><g id="Capa_1" data-name="Capa 1"><g class="cls-2"><path d="M222.42,65.29c0-5.47-10.33-9.9-23.07-9.9s-23.07,4.43-23.07,9.9a4.47,4.47,0,0,0,.27,1.43,10.14,10.14,0,0,0-.27,2.35v84.06c0,13.48,7.3,11.65,17.86,12.35,0,0,14.44-36.53,28.28-62.06V69.07a10.71,10.71,0,0,0-.27-2.35A4.47,4.47,0,0,0,222.42,65.29Z" transform="translate(-173.44 -52.56)"/><ellipse class="cls-3" cx="25.9" cy="11.42" rx="17.06" ry="5.92"/><path d="M285.89,87.53c2.39-5.23-5.57-11.4-17.78-13.77s-24.05,0-26.44,5.21a4.26,4.26,0,0,0-.37,1.42,13.48,13.48,0,0,0-1.29,2.2l-36.73,80.58c-.67,14.31,28.44,16.8,37.74,14.4,0,0-8.79-15.46-.52-24.06a44,44,0,0,1,11.77-8.64c5.8-8.21,5.63-8.06,9.62-11.67.3-.26,5.93-3.35,6.07-3.67,5-11,11.35-27.55,16.28-38.37a11.11,11.11,0,0,0,.77-2.3A5.58,5.58,0,0,0,285.89,87.53Z" transform="translate(-173.44 -52.56)"/><ellipse class="cls-3" cx="265.46" cy="81.32" rx="6.03" ry="16.73" transform="translate(-29.32 278.48) rotate(-81.12)"/><path d="M265.64,142.52l-.15-.08C265.44,142.49,265.64,142.52,265.64,142.52Z" transform="translate(-173.44 -52.56)"/><path d="M407.93,133.33c-1-1.23-3.38-1.14-3.38-1.14-2.88.09-19.28.47-25.65.33-3.73-.08-7.44-.23-11.42-.45a143.35,143.35,0,0,1-23.33-3.54h0l11.38-7.92s19.13-12.73-.78-20.39c-15.83-6.1-23-.09-23-.09l-67.34,41s-.28.74,1.08,1.36c.11-.1,1.36-.27,8.16-.43a60.79,60.79,0,0,1,15.45,1.47,72.7,72.7,0,0,1,11.09,4.85c.65.36,2.29,2.33,4.35,3.24a10,10,0,0,0,5.24.89l31.59-22c0,1,1,2.05,2.72,2.38a167.84,167.84,0,0,0,21.26,3.22,284.44,284.44,0,0,0,28.79.46c2.94-.08,4.92,2,3.49,3.65-12.27,14.5-24.94,28.85-37.16,43.37a3.87,3.87,0,0,1-2.28,1.18c-7.77,1.44-34.71,8.8-74.31,1.52-.43-.08-12.25-3.46-12.62-3.63-3.58-1.64-20.66-8.86-18.77-18.6,0-.2.41-8.84,13.38-11.56,9.84-2.06,19.71-.57,23.62,4.8,3.62,5.81,3.23,12.44-5.24,14-10.92,2-13-.5-14.21-3.63-1.76-4.36,1.45-7.17,3.42-7.48,7.59-1.16,12.5,4.06,7.24,5.34-4.54,1.1-8.2.22-6.21,3.66,2.17,3.74,9.87,0,11.83-.67,4.18-1.49,2.53-8,0-9.78s-15.86-4-20.86-1.43c-3.75,1.9-5.08,8-3.37,10.2,1.92,2.41,7,9.17,18.71,8.25s18.12-7,18.12-13-5.81-15.13-22.87-15.47-22.7,5.72-24.72,7.12c-1.68,1.17-11.47,12.43-2.68,20.86s18,11.08,30,14.83c12.64,4,67.56,3.39,76.25.92,7.58-2.15,8.53-1.6,11.63-5.64S408.39,136,408.39,136A2.33,2.33,0,0,0,407.93,133.33Z" transform="translate(-173.44 -52.56)"/></g><path class="cls-4" d="M219.58,62.45c0-5.46-10.33-9.89-23.07-9.89S173.44,57,173.44,62.45a4.42,4.42,0,0,0,.27,1.43,10.81,10.81,0,0,0-.27,2.36V150.3c0,13.48,7.3,11.65,17.87,12.34,0,0,14.44-36.53,28.27-62.06V66.24a10.8,10.8,0,0,0-.26-2.36A4.69,4.69,0,0,0,219.58,62.45Z" transform="translate(-173.44 -52.56)"/><ellipse class="cls-5" cx="23.07" cy="8.58" rx="17.06" ry="5.92"/><path class="cls-6" d="M283.06,84.7c2.39-5.24-5.58-11.4-17.79-13.77s-24,0-26.44,5.2a4.89,4.89,0,0,0-.37,1.42,13.51,13.51,0,0,0-1.28,2.21l-36.73,80.58c-.68,14.31,28.43,16.79,37.74,14.39,0,0-8.79-15.46-.52-24A43.84,43.84,0,0,1,249.43,142c5.8-8.22,5.64-8.07,9.63-11.67.29-.26,5.92-3.36,6.07-3.67,5-11,11.34-27.55,16.28-38.37a12,12,0,0,0,.77-2.31A5.84,5.84,0,0,0,283.06,84.7Z" transform="translate(-173.44 -52.56)"/><ellipse class="cls-5" cx="262.62" cy="78.48" rx="6.03" ry="16.73" transform="translate(-28.92 273.28) rotate(-81.12)"/><path class="cls-7" d="M262.81,139.68l-.16-.07S262.81,139.68,262.81,139.68Z" transform="translate(-173.44 -52.56)"/><path class="cls-7" d="M405.1,130.5c-1-1.24-3.38-1.14-3.38-1.14-2.89.08-19.29.46-25.66.33-3.72-.09-7.43-.23-11.41-.46a143.61,143.61,0,0,1-23.34-3.53h0l11.38-7.93s19.13-12.72-.77-20.39c-15.83-6.1-23-.08-23-.08l-67.33,41s-.28.74,1.07,1.36c.11-.1,1.37-.28,8.17-.43a60.2,60.2,0,0,1,15.44,1.47,70.94,70.94,0,0,1,11.1,4.85c.64.36,2.29,2.33,4.35,3.24,2.21,1,3,.88,5.23.88l31.59-22c0,1,1.05,2.05,2.73,2.39a167.54,167.54,0,0,0,21.26,3.21,287.32,287.32,0,0,0,28.79.47c2.94-.08,4.91,2,3.49,3.65-12.28,14.5-24.95,28.85-37.16,43.37a3.9,3.9,0,0,1-2.28,1.18c-7.77,1.44-34.71,8.8-74.32,1.51-.42-.08-12.25-3.46-12.61-3.62-3.59-1.65-20.67-8.87-18.77-18.6,0-.2.41-8.84,13.37-11.56,9.84-2.07,19.72-.58,23.62,4.8,3.62,5.81,3.24,12.43-5.23,14-10.92,2-13-.5-14.22-3.62-1.75-4.36,1.45-7.18,3.43-7.48,7.59-1.17,12.49,4.05,7.23,5.33-4.53,1.11-8.19.23-6.2,3.67,2.17,3.74,9.87,0,11.82-.68,4.18-1.48,2.53-8,0-9.77s-15.85-4-20.86-1.43c-3.74,1.89-5.08,8-3.37,10.19,1.92,2.42,7,9.17,18.71,8.26s18.13-6.95,18.13-13-5.82-15.12-22.88-15.46-22.69,5.72-24.72,7.12c-1.68,1.16-11.47,12.43-2.68,20.85s18,11.08,30,14.83c12.63,4,67.55,3.4,76.25.93,7.58-2.15,8.53-1.6,11.63-5.65s41.87-49.33,41.87-49.33A2.33,2.33,0,0,0,405.1,130.5Z" transform="translate(-173.44 -52.56)"/></g></g></svg>